# File created by Blade
# Date/Time:  Wed Sep 24 20:15:16 2014
# Frame Rate: 120.000 fps
#------------------------------------------------------
:FULLY-SPECIFIED
:DEGREES
3818
root -5.975916 32.710581 -4.199930 16.530118 -6.266639 -3.174464
Spine -21.447439 -4.256197 4.521515
Head 12.358485 0.768573 9.915881
LeftShoulder -8.689603 20.081900 10.368294
LeftArm 20.453363 23.472783 -76.271919
LeftForeArm -4.095858 -0.000000 19.747020
LeftHand -22.487781 0.000000 -2.879114
LeftHandThumb1 -26.253704 0.000000 33.147579
RightShoulder -25.305963 11.456535 -13.287781
RightArm -41.819463 53.349186 51.480046
RightForeArm 43.146266 -0.000000 119.694995
RightHand -7.723342 -0.000000 -55.808695
RightHandThumb1 -24.326973 -0.000000 -32.862282
LeftUpLeg -9.946190 12.354589 3.665567
LeftLeg 0.130863 -0.000000 -0.000000
LeftFoot -15.391092 10.363290 -18.757767
LeftToeBase 9.427832 -0.000000 -0.000000
RightUpLeg -13.496031 -1.628339 -1.596611
RightLeg 2.923718 -0.000000 -0.000000
RightFoot -9.453568 1.318693 -12.742082
RightToeBase -1.092677 -0.000000 0.000000
3819
root -5.978690 32.710082 -4.192281 16.529926 -6.208940 -3.172044
Spine -21.480393 -4.250379 4.502624
Head 12.438579 1.123357 9.960813
LeftShoulder -8.692042 20.085089 10.368261
LeftArm 20.442380 23.422195 -76.320377
LeftForeArm -4.020122 -0.000000 19.762827
LeftHand -22.495904 -0.000000 -2.904184
LeftHandThumb1 -26.253704 0.000000 33.147579
RightShoulder -25.285006 11.440975 -13.283103
RightArm -41.837400 53.343060 51.469619
RightForeArm 43.311161 -0.000000 119.714221
RightHand -7.633866 -0.000000 -55.790551
RightHandThumb1 -24.326973 -0.000000 -32.862282
LeftUpLeg -9.935125 12.325299 3.684321
LeftLeg 0.120647 -0.000000 -0.000000
LeftFoot -15.368044 10.297559 -18.944612
LeftToeBase 9.315560 -0.000000 -0.000000
RightUpLeg -13.470204 -1.630365 -1.593070
RightLeg 2.916283 -0.000000 -0.000000
RightFoot -9.464373 1.278373 -12.722550
RightToeBase -1.091461 -0.000000 0.000000
3820
root -5.979890 32.709799 -4.183143 16.523519 -6.159134 -3.161379
Spine -21.512583 -4.229423 4.469750
Head 12.516144 1.483241 10.003946
LeftShoulder -8.658206 20.075568 10.375377
LeftArm 20.402981 23.376499 -76.374161
LeftForeArm -3.993775 -0.000000 19.779518
LeftHand -22.481316 -0.000000 -2.933854
LeftHandThumb1 -26.253704 0.000000 33.147579
RightShoulder -25.283033 11.402934 -13.266844
RightArm -41.785256 53.352599 51.491979
RightForeArm 43.027002 -0.000000 119.656013
RightHand -7.880224 -0.000000 -55.759680
RightHandThumb1 -24.326973 -0.000000 -32.862282
LeftUpLeg -9.915319 12.321939 3.681928
LeftLeg 0.104128 -0.000000 -0.000000
LeftFoot -15.343355 10.244855 -18.956133
LeftToeBase 9.310848 -0.000000 -0.000000
RightUpLeg -13.438840 -1.645252 -1.594475
RightLeg 2.910843 -0.000000 -0.000000
RightFoot -9.466831 1.235117 -12.721041
RightToeBase -1.120144 -0.000000 0.000000
3821
root -5.982029 32.709312 -4.175356 16.525174 -6.106433 -3.159037
Spine -21.541110 -4.214284 4.448107
Head 12.579295 1.852413 10.036428
LeftShoulder -8.659339 20.075371 10.371437
LeftArm 20.402436 23.378849 -76.394828
LeftForeArm -4.001702 0.000000 19.787026
LeftHand -22.455704 0.000000 -2.887378
LeftHandThumb1 -26.253704 0.000000 33.147579
RightShoulder -25.271692 11.380443 -13.252497
RightArm -41.772627 53.340763 51.486627
RightForeArm 43.008414 -0.000000 119.650634
RightHand -7.946750 -0.000000 -55.803644
RightHandThumb1 -24.326973 -0.000000 -32.862282
LeftUpLeg -9.905890 12.304035 3.691058
LeftLeg 0.087638 -0.000000 -0.000000
LeftFoot -15.331403 10.227235 -18.939873
LeftToeBase 9.281840 -0.000000 -0.000000
RightUpLeg -13.420676 -1.662163 -1.586226
RightLeg 2.915974 -0.000000 -0.000000
RightFoot -9.487989 1.179332 -12.778614
RightToeBase -1.063923 -0.000000 0.000000
3822
root -5.984036 32.709083 -4.168160 16.527367 -6.050457 -3.154482
Spine -21.572222 -4.201282 4.424400
Head 12.638320 2.173465 10.049670
LeftShoulder -8.648372 20.077038 10.367141
LeftArm 20.403200 23.373986 -76.414480
LeftForeArm -3.975721 -0.000000 19.788960
LeftHand -22.483216 -0.000000 -2.873452
LeftHandThumb1 -26.253704 0.000000 33.147579
RightShoulder -25.236964 11.359036 -13.237027
RightArm -41.804194 53.324872 51.457240
RightForeArm 43.042567 -0.000000 119.629057
RightHand -7.804323 -0.000000 -55.760203
RightHandThumb1 -24.326973 -0.000000 -32.862282
LeftUpLeg -9.898330 12.280576 3.699860
LeftLeg 0.072596 -0.000000 -0.000000
LeftFoot -15.319151 10.198615 -18.958451
LeftToeBase 9.323814 -0.000000 -0.000000
RightUpLeg -13.401194 -1.661822 -1.584097
RightLeg 2.912571 -0.000000 -0.000000
RightFoot -9.484516 1.128748 -12.735490
RightToeBase -1.106188 -0.000000 0.000000
3823
root -5.986671 32.709024 -4.161111 16.528770 -5.990758 -3.153070
Spine -21.599200 -4.197708 4.400260
Head 12.682682 2.493836 10.072792
LeftShoulder -8.626059 20.038555 10.378552
LeftArm 20.374538 23.442247 -76.412487
LeftForeArm -4.049947 -0.000000 19.778698
LeftHand -22.479542 -0.000000 -2.841858
LeftHandThumb1 -26.253704 0.000000 33.147579
RightShoulder -25.205775 11.349999 -13.219166
RightArm -41.841318 53.331193 51.409441
RightForeArm 43.091812 -0.000000 119.610001
RightHand -7.835428 -0.000000 -55.763272
RightHandThumb1 -24.326973 -0.000000 -32.862282
LeftUpLeg -9.895630 12.267748 3.712103
LeftLeg 0.065967 -0.000000 -0.000000
LeftFoot -15.296316 10.166698 -18.915737
LeftToeBase 9.302684 -0.000000 -0.000000
RightUpLeg -13.385292 -1.671629 -1.577743
RightLeg 2.920749 -0.000000 -0.000000
RightFoot -9.495687 1.096164 -12.726450
RightToeBase -1.084705 -0.000000 0.000000
3824
root -5.988831 32.708454 -4.153768 16.526914 -5.930490 -3.145242
Spine -21.626149 -4.200898 4.375957
Head 12.718758 2.813379 10.094035
LeftShoulder -8.637900 20.049771 10.349546
LeftArm 20.382885 23.384521 -76.430867
LeftForeArm -4.207297 -0.000000 19.787347
LeftHand -22.319428 -0.000000 -1.617692
LeftHandThumb1 -26.253704 0.000000 33.147579
RightShoulder -25.162726 11.359992 -13.217436
RightArm -41.922971 53.329420 51.348482
RightForeArm 43.111961 -0.000000 119.626894
RightHand -7.786550 0.000000 -55.690453
RightHandThumb1 -24.326973 -0.000000 -32.862282
LeftUpLeg -9.888193 12.237239 3.720371
LeftLeg 0.059843 -0.000000 -0.000000
LeftFoot -15.287409 10.135463 -18.937670
LeftToeBase 9.271870 -0.000000 -0.000000
RightUpLeg -13.367460 -1.678389 -1.578451
RightLeg 2.931447 -0.000000 -0.000000
RightFoot -9.512324 1.046872 -12.711444
RightToeBase -1.094708 -0.000000 0.000000
3825
root -5.991733 32.707985 -4.145893 16.528221 -5.872475 -3.146510
Spine -21.658379 -4.192460 4.355439
Head 12.752669 3.095715 10.125998
LeftShoulder -8.625144 20.050509 10.343635
LeftArm 20.381164 23.406635 -76.431845
LeftForeArm -4.273490 -0.000000 19.780929
LeftHand -22.283727 -0.000000 -1.342839
LeftHandThumb1 -26.253704 0.000000 33.147579
RightShoulder -25.134886 11.357893 -13.218099
RightArm -41.917208 53.294968 51.368199
RightForeArm 43.142230 -0.000000 119.682770
RightHand -7.899101 0.000000 -55.664589
RightHandThumb1 -24.326973 -0.000000 -32.862282
LeftUpLeg -9.882796 12.224787 3.734765
LeftLeg 0.053038 -0.000000 -0.000000
LeftFoot -15.276893 10.109535 -18.914595
LeftToeBase 9.275343 -0.000000 -0.000000
RightUpLeg -13.348465 -1.693273 -1.567690
RightLeg 2.935452 -0.000000 -0.000000
RightFoot -9.529568 1.012553 -12.687272
RightToeBase -1.069811 -0.000000 0.000000
3826
root -5.995177 32.707499 -4.138868 16.527544 -5.811131 -3.149425
Spine -21.681491 -4.194723 4.338014
Head 12.783687 3.394773 10.152047
LeftShoulder -8.625950 20.050658 10.332198
LeftArm 20.383496 23.417385 -76.436905
LeftForeArm -4.262122 -0.000000 19.763676
LeftHand -22.313052 -0.000000 -1.352013
LeftHandThumb1 -26.253704 0.000000 33.147579
RightShoulder -25.124075 11.365499 -13.223169
RightArm -41.889390 53.306311 51.370338
RightForeArm 42.927448 -0.000000 119.618789
RightHand -8.023019 0.000000 -55.639606
RightHandThumb1 -24.326973 -0.000000 -32.862282
LeftUpLeg -9.876617 12.191102 3.757312
LeftLeg 0.048117 -0.000000 -0.000000
LeftFoot -15.276690 10.073490 -18.965617
LeftToeBase 9.279122 -0.000000 -0.000000
RightUpLeg -13.329924 -1.699773 -1.553699
RightLeg 2.946132 -0.000000 -0.000000
RightFoot -9.531088 0.952268 -12.685907
RightToeBase -1.107684 -0.000000 0.000000
3827
root -5.998000 32.706946 -4.131047 16.527277 -5.749549 -3.147566
Spine -21.710967 -4.199294 4.321379
Head 12.806926 3.641872 10.166743
LeftShoulder -8.623593 20.059255 10.323850
LeftArm 20.377491 23.436277 -76.442143
LeftForeArm -4.275594 -0.000000 19.756353
LeftHand -22.301560 0.000000 -1.431613
LeftHandThumb1 -26.253704 0.000000 33.147579
RightShoulder -25.109119 11.359143 -13.232701
RightArm -41.900345 53.309680 51.370563
RightForeArm 42.942909 -0.000000 119.618991
RightHand -8.052282 -0.000000 -55.621026
RightHandThumb1 -24.326973 -0.000000 -32.862282
LeftUpLeg -9.866603 12.161597 3.768197
LeftLeg 0.031257 -0.000000 -0.000000
LeftFoot -15.275357 10.084647 -18.794171
LeftToeBase 9.390233 -0.000000 -0.000000
RightUpLeg -13.311413 -1.716070 -1.542886
RightLeg 2.956195 -0.000000 -0.000000
RightFoot -9.549784 0.902435 -12.687802
RightToeBase -1.094816 -0.000000 0.000000
3828
root -6.001272 32.706163 -4.123851 16.530380 -5.688050 -3.146199
Spine -21.740473 -4.205604 4.299501
Head 12.823791 3.947854 10.222473
LeftShoulder -8.628358 20.073885 10.318506
LeftArm 20.377617 23.432204 -76.455063
LeftForeArm -4.214358 -0.000000 19.743701
LeftHand -22.344936 -0.000000 -1.678695
LeftHandThumb1 -26.253704 0.000000 33.147579
RightShoulder -25.091697 11.364682 -13.229933
RightArm -41.928214 53.291530 51.350582
RightForeArm 42.928768 -0.000000 119.619815
RightHand -7.782600 -0.000000 -55.536894
RightHandThumb1 -24.326973 -0.000000 -32.862282
LeftUpLeg -9.864765 12.136329 3.785192
LeftLeg 0.027548 -0.000000 -0.000000
LeftFoot -15.261221 10.032473 -18.941873
LeftToeBase 9.297688 -0.000000 -0.000000
RightUpLeg -13.293486 -1.739790 -1.530879
RightLeg 2.956553 -0.000000 -0.000000
RightFoot -9.570838 0.873114 -12.687463
RightToeBase -1.068373 -0.000000 0.000000
